 <svg width="29" height="28" viewBox="0 0 29 28" fill="none" xmlns="http://www.w3.org/2000/svg">
<path d="M14.9737 20.1832L10.657 23.479C10.4431 23.654 10.2098 23.7365 9.957 23.7264C9.70422 23.717 9.48061 23.6443 9.28617 23.5082C9.09172 23.3721 8.94122 23.1874 8.83467 22.954C8.72733 22.7207 8.72228 22.4679 8.8195 22.1957L10.482 16.7999L6.25283 13.7957C6.0195 13.6401 5.87367 13.436 5.81533 13.1832C5.757 12.9304 5.76672 12.6971 5.8445 12.4832C5.92228 12.2693 6.05839 12.0795 6.25283 11.9139C6.44728 11.749 6.68061 11.6665 6.95283 11.6665H12.1737L13.8653 6.06654C13.9626 5.79431 14.1134 5.58509 14.318 5.43887C14.5218 5.29343 14.7403 5.2207 14.9737 5.2207C15.207 5.2207 15.4256 5.29343 15.6293 5.43887C15.8339 5.58509 15.9848 5.79431 16.082 6.06654L17.7737 11.6665H22.9945C23.2667 11.6665 23.5001 11.749 23.6945 11.9139C23.8889 12.0795 24.0251 12.2693 24.1028 12.4832C24.1806 12.6971 24.1903 12.9304 24.132 13.1832C24.0737 13.436 23.9278 13.6401 23.6945 13.7957L19.4653 16.7999L21.1278 22.1957C21.2251 22.4679 21.2204 22.7207 21.1138 22.954C21.0065 23.1874 20.8556 23.3721 20.6612 23.5082C20.4667 23.6443 20.2431 23.717 19.9903 23.7264C19.7376 23.7365 19.5042 23.654 19.2903 23.479L14.9737 20.1832Z" fill="rgb(255, 192, 0)"/>
</svg>
