<svg width="28" height="28" viewBox="0 0 28 28" fill="none" xmlns="http://www.w3.org/2000/svg">
<path d="M14 20.1832L9.68337 23.479C9.46948 23.654 9.23614 23.7365 8.98337 23.7264C8.73059 23.717 8.50698 23.6443 8.31253 23.5082C8.11809 23.3721 7.96759 23.1874 7.86103 22.954C7.7537 22.7207 7.74864 22.4679 7.84587 22.1957L9.50836 16.7999L5.2792 13.7957C5.04587 13.6401 4.90003 13.436 4.8417 13.1832C4.78337 12.9304 4.79309 12.6971 4.87087 12.4832C4.94864 12.2693 5.08475 12.0795 5.2792 11.9139C5.47364 11.749 5.70698 11.6665 5.9792 11.6665H11.2L12.8917 6.06654C12.9889 5.79431 13.1398 5.58509 13.3444 5.43887C13.5481 5.29343 13.7667 5.2207 14 5.2207C14.2334 5.2207 14.4519 5.29343 14.6557 5.43887C14.8603 5.58509 15.0111 5.79431 15.1084 6.06654L16.8 11.6665H22.0209C22.2931 11.6665 22.5264 11.749 22.7209 11.9139C22.9153 12.0795 23.0514 12.2693 23.1292 12.4832C23.207 12.6971 23.2167 12.9304 23.1584 13.1832C23.1 13.436 22.9542 13.6401 22.7209 13.7957L18.4917 16.7999L20.1542 22.1957C20.2514 22.4679 20.2468 22.7207 20.1402 22.954C20.0329 23.1874 19.882 23.3721 19.6875 23.5082C19.4931 23.6443 19.2695 23.717 19.0167 23.7264C18.7639 23.7365 18.5306 23.654 18.3167 23.479L14 20.1832Z" fill="#EDEDED"/>
</svg>
